<!DOCTYPE svg PUBLIC "-//W3C//DTD SVG 1.1//EN" "http://www.w3.org/Graphics/SVG/1.1/DTD/svg11.dtd">
<!-- Uploaded to: SVG Repo, www.svgrepo.com, Transformed by: SVG Repo Mixer Tools -->
<svg height="800px" width="800px" version="1.1" id="Capa_1" xmlns="http://www.w3.org/2000/svg" xmlns:xlink="http://www.w3.org/1999/xlink" viewBox="0 0 236.004 236.004" xml:space="preserve" fill="#000000">
<g id="SVGRepo_bgCarrier" stroke-width="0"/>
<g id="SVGRepo_tracerCarrier" stroke-linecap="round" stroke-linejoin="round"/>
<g id="SVGRepo_iconCarrier"> <g> <path style="fill:#9f18e2;" d="M229.074,166.107c-6.613,6.354-33.219,17.412-44.108,14.497l-10.895-2.915 c0,0-0.125-21.271-8.224-26.939c-13.422-9.389-1.194-0.785-12.172-11.26c-7.647-7.314-3.492-24.019-4.893-25h0.001 c-1.398-0.977-7.856-20.402-8.54-42.063c-0.684-21.663-10.716-23.579-10.716-23.579S91.714,29.834,79.494,22.461 c-12.216-7.374-11.516-13.94-11.516-13.94s-3.72-4.172-8.843,0.085c-5.126,4.259,1.156,11.009,3.11,12.379 c1.955,1.367,7.695,17.542,20.702,24.684c13.009,7.141,10.257,15.417,10.257,15.417s1.39,5.677,8.424,6.675 c7.027,1,4.394,6.608,2.343,8.311c-2.051,1.703-24.927,28.84-19.706,50.146c2.877,11.73-13.747,43.47-18.217,57.466 c0,0-46.71,2.994-66.048-7.007c0,0,23.345,27.302,43.36,35.782c19.192,8.132,34.121,11.386,34.121,11.386s14.98,1.773,31.892,3.996 c12.785,1.68,28.419,2.366,43.893-0.389c8.083-1.442,16.13-3.814,23.712-7.484c1.083-0.526,2.171-1.086,3.244-1.668 c1.008-0.549,2.014-1.126,2.999-1.729c6.659-4.032,17.581-10.507,22.925-17.122l9.598-8.539 c9.863-8.743,13.861-15.248,20.26-23.176C236.006,167.734,235.69,159.754,229.074,166.107z M62.05,195.02l7.522-9.79 c32.289,2.427,65.895,1.725,100.451-1.234l6.775,9.667C138.834,196.809,100.585,197.262,62.05,195.02z"/> </g> </g>
</svg>