<?xml version="1.0" ?>
<!-- Uploaded to: SVG Repo, www.svgrepo.com, Generator: SVG Repo Mixer Tools -->
<svg width="800px" height="800px" viewBox="0 0 512 512" enable-background="new 0 0 512 512" id="flat" version="1.1" xml:space="preserve" xmlns="http://www.w3.org/2000/svg" xmlns:xlink="http://www.w3.org/1999/xlink">
<path d="M408,200v64h-48h-48h-48v199.46c0,13.455,11.011,24.791,24.464,24.536C301.505,487.748,312,477.1,312,464v-8  c0-13.255,10.745-24,24-24h0c13.255,0,24,10.745,24,24v31.46c0,13.455,11.011,24.791,24.464,24.536  C397.505,511.748,408,501.1,408,488v-80c0,13.1,10.495,23.748,23.536,23.996C444.989,432.251,456,420.915,456,407.46V200H408z" fill="#B2484E"/>
<path d="M152,288v-72h-32H56v224c0,17.673,14.327,32,32,32l0,0c17.673,0,32-14.327,32-32v-16c0-8.837,7.163-16,16-16  h0c8.837,0,16,7.163,16,16v48c0,17.673,14.327,32,32,32h8c17.673,0,32-14.327,32-32V288H152z" fill="#B2484E"/>
<circle cx="256" cy="208" fill="#F2F2F2" r="200"/>
<path d="M456,208c0,2.68-0.05,5.35-0.16,8c-1.04,26.61-7.29,51.87-17.75,74.82c0,0,0,0,0,0.01  c-2.03,4.48-4.23,8.87-6.59,13.16c-6.99,12.77-15.34,24.69-24.86,35.56c-3.41,3.92-6.98,7.7-10.7,11.34  c-17.24,16.89-37.53,30.68-59.96,40.48c-4.66,2.04-9.42,3.9-14.26,5.58c-15.77,5.49-32.43,9.05-49.72,10.42  c-5.28,0.42-10.61,0.63-16,0.63c-42.16,0-81.27-13.04-113.52-35.31c-4.42-3.06-8.72-6.29-12.87-9.69c-1.74-1.41-3.46-2.86-5.15-4.35  c-4.02-3.5-7.9-7.17-11.62-10.99C77.67,311.62,56,262.34,56,208C56,97.54,145.54,8,256,8c23,0,45.09,3.88,65.65,11.03  c4.86,1.68,9.64,3.55,14.32,5.6c25.93,11.32,48.99,27.98,67.79,48.59c3.83,4.18,7.47,8.53,10.92,13.03  c24.4,31.75,39.48,71.03,41.16,113.75C455.95,202.65,456,205.32,456,208z" fill="#F2F2F2"/>
<circle cx="208" cy="184" fill="#E65C64" r="120"/>
<path d="M216,160c-17.673,0-32-14.327-32-32c0-9.145,3.842-17.387,9.993-23.219C190.736,104.271,187.4,104,184,104  c-35.346,0-64,28.654-64,64c0,35.346,28.654,64,64,64s64-28.654,64-64c0-8.342-1.613-16.302-4.516-23.61  C237.897,153.738,227.682,160,216,160z" fill="#4D5166"/>
<g>
<path d="M414.68,86.25l-6.92,27.69c-0.9,3.62-4.15,6.06-7.75,6.06c-0.52,0-1.05-0.05-1.58-0.16l-26.77-5.35   c-10.84-2.17-19.9-9.09-24.85-18.98l-9.97-19.93c-1.97-3.95-0.37-8.76,3.58-10.74c3.95-1.97,8.76-0.37,10.74,3.58l9.96,19.93   c2.72,5.45,7.71,9.26,13.68,10.45l19.29,3.86l6.15-24.6c0.52-2.1,1.83-3.79,3.52-4.84C407.59,77.4,411.23,81.75,414.68,86.25z" fill="#953C41"/>
</g>
<g>
<path d="M376,152c-2.048,0-4.095-0.781-5.657-2.343l-11.366-11.367c-9.999-10-11.142-26.071-2.656-37.383   L369.6,83.2c2.652-3.536,7.666-4.251,11.2-1.6c3.535,2.651,4.251,7.665,1.601,11.2l-13.28,17.707   c-3.738,4.984-3.235,12.064,1.171,16.47l11.366,11.367c3.124,3.124,3.124,8.189-0.001,11.313C380.095,151.219,378.047,152,376,152z   " fill="#953C41"/>
</g>
<g>
<path d="M406.64,339.55c-3.41,3.92-6.98,7.7-10.7,11.34c-0.25-0.15-0.5-0.31-0.74-0.49L368,330l-27.2,20.4   c-1.99,1.49-4.57,1.98-6.96,1.3c-2.4-0.67-4.34-2.42-5.27-4.73l-13.4-33.52l-25.23,6.31c-4.29,1.07-8.63-1.53-9.7-5.82   c-1.07-4.29,1.53-8.63,5.82-9.7l32-8c3.88-0.97,7.88,1.07,9.37,4.79l12.12,30.31l23.65-17.74c2.84-2.13,6.76-2.13,9.6,0l32,24   C405.54,338.16,406.16,338.82,406.64,339.55z" fill="#953C41"/>
</g>
<g>
<path d="M328,328c-2.048,0-4.095-0.781-5.657-2.343c-3.124-3.124-3.124-8.189,0-11.313l14.434-14.433l7.463-29.851   c1.071-4.286,5.417-6.891,9.701-5.821c4.286,1.072,6.893,5.415,5.82,9.702l-8,32c-0.352,1.407-1.078,2.691-2.104,3.716l-16,16   C332.095,327.219,330.048,328,328,328z" fill="#953C41"/>
</g>
<g>
<path d="M456,208c0,2.68-0.05,5.35-0.16,8h-35.98c-2.03,0-4.08,0.2-6.08,0.6l-28.14,5.63   c-1.22,0.25-2.45,0.36-3.67,0.36c-7,0-13.59-3.94-16.81-10.37l-12.32-24.64c-1.97-3.95-0.37-8.76,3.58-10.74   c3.95-1.97,8.76-0.37,10.74,3.58l12.31,24.64c0.56,1.12,1.81,1.72,3.03,1.48l28.14-5.63c3.03-0.6,6.13-0.91,9.22-0.91h35.98   C455.95,202.65,456,205.32,456,208z" fill="#953C41"/>
</g>
<g>
<path d="M376.006,256.002c-2.935,0-5.76-1.621-7.161-4.424c-1.976-3.952-0.374-8.757,3.577-10.733l20.601-10.3   c0.361-0.18,0.576-0.474,0.641-0.871c0.065-0.398-0.047-0.744-0.332-1.029l-6.987-6.987c-3.125-3.124-3.125-8.189-0.001-11.314   c3.125-3.124,8.19-3.125,11.313,0l6.988,6.988c3.896,3.896,5.694,9.468,4.812,14.906c-0.883,5.438-4.352,10.155-9.278,12.619   l-20.601,10.3C378.43,255.729,377.208,256.002,376.006,256.002z" fill="#953C41"/>
</g>
<g>
<path d="M272,376v31.37c-5.28,0.42-10.61,0.63-16,0.63v-25.75l-25.94-6.49c-3.56-0.89-6.06-4.09-6.06-7.76v-32   c0-4.42,3.58-8,8-8s8,3.58,8,8v25.75l25.94,6.49C269.5,369.13,272,372.33,272,376z" fill="#953C41"/>
</g>
<g>
<path d="M208.001,384c-1.562,0-3.108-0.457-4.438-1.344l-24-16c-3.677-2.451-4.67-7.417-2.219-11.094   c2.448-3.676,7.414-4.672,11.094-2.219l20.744,13.83l20.288-6.763c4.196-1.399,8.722,0.869,10.12,5.06   c1.396,4.191-0.868,8.722-5.06,10.119l-24,8C209.704,383.865,208.851,384,208.001,384z" fill="#953C41"/>
</g>
<g>
<path d="M264,384c-4.418,0-8-3.582-8-8v-24c0-3.443,2.203-6.5,5.47-7.589l24-8c4.195-1.399,8.722,0.868,10.12,5.06   c1.396,4.191-0.868,8.722-5.06,10.119L272,357.766V376C272,380.418,268.418,384,264,384z" fill="#953C41"/>
</g>
<g>
<path d="M135.76,321.94l-8,32c-0.5,2-1.71,3.64-3.3,4.71c-4.02-3.5-7.9-7.17-11.62-10.99l6.68-26.73l-6.68-13.35   c-1.97-3.95-0.37-8.76,3.58-10.74c3.95-1.97,8.76-0.37,10.74,3.58l8,16C136.01,318.13,136.22,320.09,135.76,321.94z" fill="#953C41"/>
</g>
<g>
<path d="M335.97,24.63c-0.14,1.83-0.91,3.63-2.31,5.03l-32,32C300.12,63.19,298.07,64,296,64   c-1.22,0-2.44-0.28-3.58-0.84l-16-8c-3.95-1.98-5.55-6.79-3.58-10.74c1.98-3.95,6.78-5.55,10.74-3.58l10.84,5.43l27.23-27.24   C326.51,20.71,331.29,22.58,335.97,24.63z" fill="#953C41"/>
</g>
<g>
<path d="M311.994,88.002c-1.203,0-2.423-0.272-3.572-0.847c-3.951-1.976-5.553-6.781-3.577-10.733l6.518-13.036   L304.41,42.53c-1.396-4.191,0.868-8.722,5.06-10.119c4.195-1.397,8.722,0.868,10.12,5.06l8,24c0.671,2.013,0.515,4.21-0.435,6.107   l-8,16C317.754,86.381,314.929,88.001,311.994,88.002z" fill="#953C41"/>
</g>
<g>
<path d="M179.7,335.09l-23.43,12.22l-13.23,24.49c-0.17,0.31-0.36,0.61-0.56,0.89c-4.42-3.06-8.72-6.29-12.87-9.69   l13.75-25.46c0.76-1.4,1.92-2.55,3.34-3.29l25.6-13.34c3.92-2.05,8.75-0.53,10.79,3.39C185.14,328.22,183.62,333.05,179.7,335.09z" fill="#953C41"/>
</g>
<g>
<path d="M438.09,290.82c0,0,0.01,0.01,0,0.01c-2.03,4.48-4.23,8.87-6.59,13.16c-1.04-0.07-2.09-0.34-3.08-0.83   l-32-16c-0.77-0.39-1.47-0.9-2.08-1.5l-16-16c-3.12-3.13-3.12-8.19,0-11.32c3.13-3.12,8.19-3.12,11.32,0l15.08,15.09l30.84,15.41   C436.57,289.34,437.42,290.02,438.09,290.82z" fill="#953C41"/>
</g>
<g>
<path d="M335.98,391.37c-4.66,2.04-9.42,3.9-14.26,5.58c-0.56-0.71-1.01-1.52-1.31-2.42L314.23,376H304   c-4.42,0-8-3.58-8-8c0-4.42,3.58-8,8-8h16c3.44,0,6.5,2.2,7.59,5.47l8,24C335.8,390.1,335.93,390.74,335.98,391.37z" fill="#953C41"/>
</g>
</svg>