<?xml version="1.0" encoding="iso-8859-1"?>
<!-- Uploaded to: SVG Repo, www.svgrepo.com, Generator: SVG Repo Mixer Tools -->
<svg version="1.1" id="Layer_1" xmlns="http://www.w3.org/2000/svg" xmlns:xlink="http://www.w3.org/1999/xlink" 
	 viewBox="0 0 512 512" xml:space="preserve">
<path style="fill:#FAA85F;" d="M216,176h80c9.6,0,16-6.4,16-16V80c0-9.6-6.4-16-16-16h-80c-9.6,0-16,6.4-16,16v80
	C200,169.6,206.4,176,216,176z"/>
<path style="fill:#FFFFFF;" d="M344,121.6V160c0,27.2-20.8,48-48,48h-80c-27.2,0-48-20.8-48-48v-38.4l-51.2,56L160,240h192
	l43.2-62.4L344,121.6z"/>
<g>
	<rect x="384" y="400" style="fill:#FAA85F;" width="96" height="48"/>
	<path style="fill:#FAA85F;" d="M432,272H80c-9.6,0-16,6.4-16,16v80h96v80h192v-80h96v-80C448,278.4,441.6,272,432,272z"/>
	<rect x="32" y="400" style="fill:#FAA85F;" width="96" height="48"/>
</g>
<path style="fill:#00384E;" d="M480,368v-80c0-27.2-20.8-48-48-48h-41.6l46.4-65.6L344,72c-4.8-22.4-24-40-48-40h-80
	c-24,0-43.2,17.6-48,41.6L75.2,176l46.4,64H80c-27.2,0-48,20.8-48,48v80H0v80v16v16h512v-16v-16v-80H480z M200,80
	c0-9.6,6.4-16,16-16h80c9.6,0,16,6.4,16,16v80c0,9.6-6.4,16-16,16h-80c-9.6,0-16-6.4-16-16V80z M116.8,177.6l51.2-56V160
	c0,27.2,20.8,48,48,48h80c27.2,0,48-20.8,48-48v-38.4l51.2,56L352,240H160L116.8,177.6z M128,448H32v-48h96V448z M352,448H160v-80
	H64v-80c0-9.6,6.4-16,16-16h64h224h64c9.6,0,16,6.4,16,16v80h-96V448z M480,448h-96v-48h96V448z"/>
</svg>